<!--?xml version="1.0" encoding="utf-8"?-->
<!-- Svg Vector Icons : http://www.onlinewebfonts.com/icon -->

<svg version="1.1" xmlns="http://www.w3.org/2000/svg" xmlns:xlink="http://www.w3.org/1999/xlink" x="0px" y="0px" viewBox="0 0 256 256" enable-background="new 0 0 256 256" xml:space="preserve">
<metadata> Svg Vector Icons : http://www.onlinewebfonts.com/icon </metadata>
<g><g><path fill="#b27454" data-title="Layer 0" xs="0" d="M214.7,185.6c-4-3.1-9.8-2.4-13,1.6c-8.9,11.4-20.3,20.9-33.3,27.4c-13.5,6.8-28.1,10.2-43.3,10.2c-13.1,0-25.7-2.6-37.7-7.6c-11.5-4.9-21.9-11.8-30.8-20.8c-8.9-8.9-15.9-19.2-20.8-30.8c-5-11.9-7.6-24.6-7.6-37.6c0-13.1,2.6-25.7,7.6-37.7C41,78.8,48,68.5,56.9,59.6c8.9-8.9,19.2-15.9,30.8-20.8c11.9-5,24.6-7.6,37.7-7.6c15.2,0,29.8,3.4,43.3,10.2c12.9,6.5,24.4,15.9,33.3,27.4c3.1,4,8.9,4.8,13,1.6c4-3.1,4.8-8.9,1.6-13c-10.6-13.6-24.3-24.9-39.6-32.6c-16.1-8.1-33.4-12.2-51.6-12.2c-15.6,0-30.7,3.1-44.9,9.1c-13.7,5.8-26,14.1-36.6,24.7C33.2,57.1,24.9,69.4,19.1,83.1c-6,14.2-9.1,29.3-9.1,44.9c0,15.6,3.1,30.6,9.1,44.9c5.8,13.7,14.1,26,24.7,36.6c10.6,10.6,22.9,18.9,36.6,24.7c14.2,6,29.3,9.1,44.9,9.1c18.1,0,35.5-4.1,51.6-12.2c15.4-7.7,29-19,39.6-32.6C219.5,194.5,218.8,188.7,214.7,185.6z"/><path fill="#878989" data-title="Layer 1" xs="1" d="M244,126.4l-40.7-34.3c-2.6-2.2-4.7-1.3-4.7,2v27h-54c-5.1,0-9.2,4.1-9.2,9.2c0,5.1,4.1,9.2,9.2,9.2h54.1v27c0,3.3,2.1,4.3,4.7,2l40.7-34.4C246.7,132.2,246.7,128.6,244,126.4z"/></g></g>
</svg>